<svg version="1.1" id="Layer_1" xmlns="http://www.w3.org/2000/svg" xmlns:xlink="http://www.w3.org/1999/xlink" x="0px" y="0px"
	 viewBox="0 0 120 120" style="enable-background:new 0 0 120 120;" xml:space="preserve">
<style type="text/css">
	.st0{fill-rule:evenodd;clip-rule:evenodd;}
</style>
<g>
	<path class="st0" d="M-447,60.1C-447-220-220-447,60.1-447S567.2-220,567.2,60.1c0,280.1-227,507.1-507.1,507.1
		S-447,340.2-447,60.1L-447,60.1z M-383.2,60.1c0,244.8,198.5,443.3,443.3,443.3S503.4,304.9,503.4,60.1
		c0-244.8-198.5-443.3-443.3-443.3S-383.2-184.8-383.2,60.1L-383.2,60.1z"/>
</g>
<g>
	<path class="st0" d="M-447,60.1C-447-220-220-447,60.1-447S567.2-220,567.2,60.1c0,280.1-227,507.1-507.1,507.1
		S-447,340.2-447,60.1L-447,60.1z M-383.2,60.1c0,244.8,198.5,443.3,443.3,443.3S503.4,304.9,503.4,60.1
		c0-244.8-198.5-443.3-443.3-443.3S-383.2-184.8-383.2,60.1L-383.2,60.1z"/>
</g>
<g>
	<path class="st0" d="M-447,60.1C-447-220-220-447,60.1-447S567.2-220,567.2,60.1c0,280.1-227,507.1-507.1,507.1
		S-447,340.2-447,60.1L-447,60.1z M-383.2,60.1c0,244.8,198.5,443.3,443.3,443.3S503.4,304.9,503.4,60.1
		c0-244.8-198.5-443.3-443.3-443.3S-383.2-184.8-383.2,60.1L-383.2,60.1z"/>
</g>
<g>
	<path class="st0" d="M0,60C0,26.9,26.9,0,60,0s60,26.9,60,60s-26.9,60-60,60S0,93.1,0,60L0,60z M7.5,60c0,29,23.5,52.5,52.5,52.5
		S112.5,89,112.5,60C112.5,31,89,7.5,60,7.5S7.5,31,7.5,60L7.5,60z"/>
</g>
</svg>
